<svg id="b02ec1fc-507d-4fd3-80bd-60ae11867f97" data-name="图层 1" xmlns="http://www.w3.org/2000/svg" viewBox="0 0 202.04 202.04">
  <defs>
    <style>
      .b0e967c5-1c56-408c-b65a-948b73731029 {
        fill: #eb586f;
      }

      .ad803e91-06c2-4202-b16b-f71f7349b084 {
        fill: #d8e9f0;
      }

      .b78b8011-0ab7-4073-bfad-fd8e7cc7caae {
        fill: #4aa0d5;
      }

      .b1d7319c-9b81-4677-9c7d-36609ea8f195 {
        fill: #f2f2f2;
      }

      .aa630b81-1e90-4bef-a15d-3da67d3fa54c {
        fill: #454553;
      }

      .ad6ea43c-b804-4de4-b656-280426f0ef72 {
        fill: none;
        stroke: #000;
        stroke-miterlimit: 10;
        stroke-width: 8px;
      }
    </style>
  </defs>
  <g>
    <g>
      <rect class="b0e967c5-1c56-408c-b65a-948b73731029" x="78.12" y="123.92" width="119.92" height="74.12"/>
      <polygon class="ad803e91-06c2-4202-b16b-f71f7349b084" points="198.04 27.99 198.04 123.92 78.12 123.92 78.12 81.1 197.42 27.99 198.04 27.99"/>
      <polygon class="b78b8011-0ab7-4073-bfad-fd8e7cc7caae" points="198.04 4 198.04 27.99 197.42 27.99 78.12 72.24 78.12 4 198.04 4"/>
      <polygon class="b1d7319c-9b81-4677-9c7d-36609ea8f195" points="197.42 27.99 78.12 81.1 78.12 78.11 78.12 72.24 197.42 27.99"/>
      <polygon class="aa630b81-1e90-4bef-a15d-3da67d3fa54c" points="78.12 123.92 78.12 198.04 4 198.04 4 114.1 78.12 81.1 78.12 123.92"/>
      <polygon class="ad803e91-06c2-4202-b16b-f71f7349b084" points="78.12 4 78.12 72.24 78.04 72.27 4 114.01 4 4 78.12 4"/>
    </g>
    <g>
      <polyline class="ad6ea43c-b804-4de4-b656-280426f0ef72" points="198.04 123.92 198.04 198.04 78.12 198.04 4 198.04 4 114.1 4 114.01 4 4 78.12 4"/>
      <polyline class="ad6ea43c-b804-4de4-b656-280426f0ef72" points="78.12 78.11 78.12 72.24 78.12 4 198.04 4 198.04 27.99 198.04 123.92 78.12 123.92"/>
      <polyline class="ad6ea43c-b804-4de4-b656-280426f0ef72" points="78.12 198.04 78.12 123.92 78.12 81.1 78.12 78.11"/>
      <polygon class="ad6ea43c-b804-4de4-b656-280426f0ef72" points="78.12 72.24 78.04 72.27 4 114.01 3.24 114.44 4 114.1 78.12 81.1 197.42 27.99 78.12 72.24"/>
    </g>
  </g>
</svg>
